<?xml version="1.0" encoding="UTF-8" standalone="no"?>
<!DOCTYPE svg PUBLIC "-//W3C//DTD SVG 1.1//EN" "http://www.w3.org/Graphics/SVG/1.1/DTD/svg11.dtd">
<svg version="1.1" xmlns="http://www.w3.org/2000/svg" xmlns:xlink="http://www.w3.org/1999/xlink" preserveAspectRatio="xMidYMid meet" viewBox="0 0 640 640" width="640" height="640"><defs><path d="M318 0C142.37 0 0 142.37 0 318C0 493.63 142.37 636 318 636C493.63 636 636 493.63 636 318C636 142.37 493.63 0 318 0Z" id="cXY18GfEO"></path><linearGradient id="gradiente7X2KjiGUj" gradientUnits="userSpaceOnUse" x1="318" y1="636" x2="318" y2="0"><stop style="stop-color: #808080;stop-opacity: 0.25" offset="0%"></stop><stop style="stop-color: #808080;stop-opacity: 0.12" offset="54%"></stop><stop style="stop-color: #808080;stop-opacity: 0.1" offset="100%"></stop></linearGradient><path d="M318.62 4.67C146.7 4.67 7.33 144.05 7.33 315.97C7.33 487.89 146.7 627.26 318.62 627.26C490.54 627.26 629.91 487.89 629.91 315.97C629.91 144.05 490.54 4.67 318.62 4.67Z" id="bd626bdxZ"></path><path d="M490.02 577.28C478.55 514.6 434.89 511.02 434.89 511.02C410.82 511.02 218.24 511.02 194.16 511.02C194.16 511.02 152.97 514.4 140.1 572.07C192.45 608.89 254.91 628.6 318.91 628.49C379.74 628.59 439.25 610.78 490.02 577.28Z" id="b6Qs9A6jiV"></path><path d="M315.6 159.15C232.62 159.15 165.35 226.43 165.35 309.41C165.35 392.39 232.62 459.66 315.6 459.66C398.59 459.66 465.86 392.39 465.86 309.41C465.86 226.43 398.59 159.15 315.6 159.15Z" id="m1xVSnAeUv"></path><path d="M363.39 434.56C363.39 480.77 363.39 506.44 363.39 511.58C363.39 538.16 341.84 559.71 315.27 559.72C315.27 559.72 315.27 559.72 315.27 559.72C288.68 559.72 267.13 538.16 267.13 511.58C267.13 511.58 267.13 511.58 267.13 511.58C267.13 506.44 267.13 480.77 267.13 434.56L363.39 434.56Z" id="eCihhVGv"></path><path d="M360.37 430.99C362.06 430.99 363.42 432.35 363.42 434.04C363.42 434.04 363.42 434.04 363.42 434.04C363.42 441.44 363.42 500.61 363.42 508.01C363.43 534.59 341.88 556.15 315.29 556.15C315.28 556.15 315.28 556.15 315.27 556.15C315.27 556.15 315.27 556.15 315.27 556.15C288.68 556.15 267.13 534.6 267.13 508.02C267.13 508.02 267.13 508.02 267.13 508.02C267.13 500.62 267.13 441.44 267.13 434.04C267.13 432.36 268.48 431 270.16 430.99C270.16 430.99 351.35 430.99 360.37 430.99Z" id="baQqgjhmX"></path><path d="M267.28 470.91C298.31 482.51 332.47 482.6 363.56 471.18C363.56 470.39 363.56 466.44 363.56 459.33L267.28 459.33C267.28 465.51 267.28 469.37 267.28 470.91Z" id="a2CcplIKDt"></path><path d="M315.6 201.36C239.39 201.36 177.61 263.14 177.61 339.36C177.61 415.57 239.39 477.36 315.6 477.36C391.82 477.36 453.6 415.57 453.6 339.36C453.6 263.14 391.82 201.36 315.6 201.36Z" id="d3TS3Vt2YB"></path><path d="M217.31 213.83C217.31 213.83 275.47 331.89 439.52 263.33C436.98 259.34 424.24 239.37 401.33 203.44L333.62 179.14C271.58 197.64 232.81 209.21 217.31 213.83Z" id="b2Z7TfcMRE"></path><path d="M217.31 212.1C217.31 212.1 275.47 330.16 439.52 261.58C436.98 257.59 424.24 237.62 401.33 201.69L333.62 177.39C271.58 195.9 232.81 207.47 217.31 212.1Z" id="a3yrIY6RY2"></path><path d="M236.56 171.97C263.7 145.13 308.2 139.47 331.03 108.88C336.5 117.37 332.27 130.43 322.83 134.07C344.7 133.92 370.04 132.01 382.4 114.02C388.64 128.54 385.95 145.36 375.5 157.21C394.88 158.13 415.6 171.25 416.82 190.61C417.66 203.51 409.53 215.72 398.97 223.12C388.41 230.52 375.54 233.92 362.92 236.7C326.07 244.83 192.75 278.88 216.8 204.1C220.72 191.96 227.49 180.94 236.56 171.97Z" id="e2c5aYLhOx"></path><path d="M190.39 339.23C190.39 352.53 184.64 363.3 177.55 363.3C170.46 363.3 164.71 352.53 164.71 339.23C164.71 325.94 170.46 315.16 177.55 315.16C184.64 315.16 190.39 325.94 190.39 339.23Z" id="aO1ZlYTV9"></path><path d="M466.42 339.23C466.42 352.53 460.67 363.3 453.58 363.3C446.49 363.3 440.74 352.53 440.74 339.23C440.74 325.94 446.49 315.16 453.58 315.16C460.67 315.16 466.42 325.94 466.42 339.23Z" id="ashNmLpLp"></path></defs><g><g><g><use xlink:href="#cXY18GfEO" opacity="1" fill="url(#gradiente7X2KjiGUj)"></use><g><use xlink:href="#cXY18GfEO" opacity="1" fill-opacity="0" stroke="#000000" stroke-width="1" stroke-opacity="0"></use></g></g><g><use xlink:href="#bd626bdxZ" opacity="1" fill="#f5f5f5" fill-opacity="1"></use><g><use xlink:href="#bd626bdxZ" opacity="1" fill-opacity="0" stroke="#000000" stroke-width="1" stroke-opacity="0"></use></g></g><g><use xlink:href="#b6Qs9A6jiV" opacity="1" fill="#3c8dbc" fill-opacity="1"></use><g><use xlink:href="#b6Qs9A6jiV" opacity="1" fill-opacity="0" stroke="#000000" stroke-width="1" stroke-opacity="0"></use></g></g><g><use xlink:href="#m1xVSnAeUv" opacity="1" fill="#333333" fill-opacity="1"></use><g><use xlink:href="#m1xVSnAeUv" opacity="1" fill-opacity="0" stroke="#000000" stroke-width="1" stroke-opacity="0"></use></g></g><g><use xlink:href="#eCihhVGv" opacity="1" fill="#000000" fill-opacity="1"></use><g><use xlink:href="#eCihhVGv" opacity="1" fill-opacity="0" stroke="#000000" stroke-width="1" stroke-opacity="0"></use></g></g><g><use xlink:href="#baQqgjhmX" opacity="1" fill="#fdb797" fill-opacity="1"></use><g><use xlink:href="#baQqgjhmX" opacity="1" fill-opacity="0" stroke="#000000" stroke-width="1" stroke-opacity="0"></use></g></g><g><use xlink:href="#a2CcplIKDt" opacity="1" fill="#000000" fill-opacity="1"></use><g><use xlink:href="#a2CcplIKDt" opacity="1" fill-opacity="0" stroke="#000000" stroke-width="1" stroke-opacity="0"></use></g></g><g><use xlink:href="#d3TS3Vt2YB" opacity="1" fill="#fdb797" fill-opacity="1"></use><g><use xlink:href="#d3TS3Vt2YB" opacity="1" fill-opacity="0" stroke="#000000" stroke-width="1" stroke-opacity="0"></use></g></g><g><use xlink:href="#b2Z7TfcMRE" opacity="1" fill="#000000" fill-opacity="1"></use><g><use xlink:href="#b2Z7TfcMRE" opacity="1" fill-opacity="0" stroke="#000000" stroke-width="1" stroke-opacity="0"></use></g></g><g><use xlink:href="#a3yrIY6RY2" opacity="1" fill="#333333" fill-opacity="1"></use><g><use xlink:href="#a3yrIY6RY2" opacity="1" fill-opacity="0" stroke="#000000" stroke-width="1" stroke-opacity="0"></use></g></g><g><use xlink:href="#e2c5aYLhOx" opacity="1" fill="#333333" fill-opacity="1"></use><g><use xlink:href="#e2c5aYLhOx" opacity="1" fill-opacity="0" stroke="#000000" stroke-width="1" stroke-opacity="0"></use></g></g><g><use xlink:href="#aO1ZlYTV9" opacity="1" fill="#fdb797" fill-opacity="1"></use><g><use xlink:href="#aO1ZlYTV9" opacity="1" fill-opacity="0" stroke="#000000" stroke-width="1" stroke-opacity="0"></use></g></g><g><use xlink:href="#ashNmLpLp" opacity="1" fill="#fdb797" fill-opacity="1"></use><g><use xlink:href="#ashNmLpLp" opacity="1" fill-opacity="0" stroke="#000000" stroke-width="1" stroke-opacity="0"></use></g></g></g></g></svg>